<!DOCTYPE svg PUBLIC "-//W3C//DTD SVG 1.1//EN" "http://www.w3.org/Graphics/SVG/1.1/DTD/svg11.dtd">
<!-- Uploaded to: SVG Repo, www.svgrepo.com, Transformed by: SVG Repo Mixer Tools -->
<svg width="800px" height="800px" viewBox="-2.4 -2.4 28.80 28.80" fill="none" xmlns="http://www.w3.org/2000/svg">
<g id="SVGRepo_bgCarrier" stroke-width="0">
<rect x="-2.4" y="-2.4" width="28.80" height="28.80" rx="14.4" fill="#F4C40F" strokewidth="0"/>
</g>
<g id="SVGRepo_tracerCarrier" stroke-linecap="round" stroke-linejoin="round"/>
<g id="SVGRepo_iconCarrier"> <path d="M12 9.00006L16 5.00006M12 14.5001L15 11.5001M18.5 8.00006L16.875 9.62506M12 19.5001L13.875 17.6251M19.5 12.0001L15.75 15.7501" stroke="#008B8B" stroke-width="1.5" stroke-linecap="round"/> <path d="M12 22C16.4183 22 20 18.3541 20 13.8567C20 9.39453 17.4467 4.18759 13.4629 2.32555C12.9986 2.10852 12.4993 2 12 2M12 22C7.58172 22 4 18.3541 4 13.8567C4 12.2707 4.32258 10.5906 4.91731 9M12 22V2M12 2C11.5007 2 11.0014 2.10852 10.5371 2.32555C8.93605 3.07388 7.56606 4.36246 6.5 5.92583" stroke="#008B8B" stroke-width="1.5" stroke-linecap="round"/> </g>
</svg>