<svg width="3000" xmlns="http://www.w3.org/2000/svg" height="1000" id="screenshot-cbcd9565-4438-8095-8004-67dbef61aaf2" fill="none" version="1.1"><style>@font-face{font-family:&apos;Poppins&apos;;font-style:normal;font-weight:700;font-display:block;src:url(https://design.penpot.app/internal/gfonts/font/poppins/v21/pxiByp8kv8JHgFVrLCz7Z1JlFc-K.woff2) format(&apos;woff2&apos;);unicode-range:U+0100-02AF, U+0304, U+0308, U+0329, U+1E00-1E9F, U+1EF2-1EFF, U+2020, U+20A0-20AB, U+20AD-20C0, U+2113, U+2C60-2C7F, U+A720-A7FF}@font-face{font-family:&apos;Poppins&apos;;font-style:normal;font-weight:700;font-display:block;src:url(https://design.penpot.app/internal/gfonts/font/poppins/v21/pxiByp8kv8JHgFVrLCz7Z1xlFQ.woff2) format(&apos;woff2&apos;);unicode-range:U+0000-00FF, U+0131, U+0152-0153, U+02BB-02BC, U+02C6, U+02DA, U+02DC, U+0304, U+0308, U+0329, U+2000-206F, U+2074, U+20AC, U+2122, U+2191, U+2193, U+2212, U+2215, U+FEFF, U+FFFD}</style><g id="shape-cbcd9565-4438-8095-8004-67dbef61aaf2"><defs><clipPath id="frame-clip-cbcd9565-4438-8095-8004-67dbef61aaf2-render-1" class="frame-clip frame-clip-def"><rect rx="50" ry="50" width="3000" height="1000"/></clipPath></defs><g clip-path="url(#frame-clip-cbcd9565-4438-8095-8004-67dbef61aaf2-render-1)"><g class="fills" id="fills-cbcd9565-4438-8095-8004-67dbef61aaf2"><rect width="3000" height="1000" class="frame-background" style="fill: rgb(249, 242, 226); fill-opacity: 1;" ry="50" rx="50"/></g><g class="frame-children"><g id="shape-cbcd9565-4438-8095-8004-67dbef61aaf3"><g class="fills" id="fills-cbcd9565-4438-8095-8004-67dbef61aaf3"><rect rx="0" ry="0" x="365.75" y="125" width="2268.5" height="750" class="frame-background"/></g><g class="frame-children"><g id="shape-cbcd9565-4438-8095-8004-67dc1a4ec347" style="fill: rgb(0, 0, 0);"><g id="shape-cbcd9565-4438-8095-8004-67dc1a4f5047"><rect width="750" height="750" x="365.75" stroke-width="0" style="fill: rgb(244, 196, 15);" ry="375" rx="375" y="125" class="fills" id="fills-cbcd9565-4438-8095-8004-67dc1a4f5047"/></g><g id="shape-cbcd9565-4438-8095-8004-67dc1a4f8be5"><path d="M740.75 421.877 844.917 317.71M740.75 565.107l78.125-78.125m91.146-91.147-42.318 42.318M740.75 695.315l48.828-48.828m146.484-146.484-97.656 97.656" fill="none" style="fill: none;" class="fills" id="fills-cbcd9565-4438-8095-8004-67dc1a4f8be5"/><g fill="none" id="strokes-cbcd9565-4438-8095-8004-67dc1a4f8be5" class="strokes"><path d="M740.75 421.877 844.917 317.71M740.75 565.107l78.125-78.125m91.146-91.147-42.318 42.318M740.75 695.315l48.828-48.828m146.484-146.484-97.656 97.656" style="fill: none; stroke-width: 39.0625; stroke: rgb(0, 139, 139); stroke-opacity: 1;" class="stroke-shape"/></g></g><g id="shape-cbcd9565-4438-8095-8004-67dc1a4fdfa1"><path d="M740.75 760.417c115.06 0 208.333-94.946 208.333-212.065 0-116.203-66.492-251.8-170.237-300.291a89.907 89.907 0 0 0-38.096-8.478m0 520.834c-115.059 0-208.333-94.946-208.333-212.065 0-41.303 8.4-85.055 23.888-126.477M740.75 760.417V239.583m0 0a89.907 89.907 0 0 0-38.096 8.478c-41.694 19.488-77.371 53.045-105.133 93.757" fill="none" style="fill: none;" class="fills" id="fills-cbcd9565-4438-8095-8004-67dc1a4fdfa1"/><g fill="none" id="strokes-cbcd9565-4438-8095-8004-67dc1a4fdfa1" class="strokes"><path d="M740.75 760.417c115.06 0 208.333-94.946 208.333-212.065 0-116.203-66.492-251.8-170.237-300.291a89.907 89.907 0 0 0-38.096-8.478m0 520.834c-115.059 0-208.333-94.946-208.333-212.065 0-41.303 8.4-85.055 23.888-126.477M740.75 760.417V239.583m0 0a89.907 89.907 0 0 0-38.096 8.478c-41.694 19.488-77.371 53.045-105.133 93.757" style="fill: none; stroke-width: 39.0625; stroke: rgb(0, 139, 139); stroke-opacity: 1;" class="stroke-shape"/></g></g></g><g class="text-container" id="shape-cbcd9565-4438-8095-8004-67dbef61aaf4"><defs><pattern patternUnits="userSpaceOnUse" x="1394.25" y="395" width="1239.187" height="245" id="fill-0-render-7-0"><rect width="1239.187" height="245" style="fill: rgb(51, 51, 51); fill-opacity: 1;"/></pattern></defs><text x="1394.25" y="622" dominant-baseline="ideographic" textLength="1239.188" lengthAdjust="spacingAndGlyphs" style="text-transform: none; font-family: Poppins; letter-spacing: normal; font-style: normal; font-weight: 700; white-space: pre; font-size: 175px; text-decoration: none solid rgb(51, 51, 51); direction: ltr; fill: rgb(51, 51, 51); fill-opacity: 1;" class="fills" id="fills-cbcd9565-4438-8095-8004-67dbef61aaf4">Green Growth</text></g></g></g></g></g></g></svg>